HIERARCHY
ROOT Hips
{
	OFFSET 55.310501 45.591206 43.872097
	CHANNELS 6 Xposition Yposition Zposition Zrotation Xrotation Yrotation
	JOINT Chest
	{
		OFFSET -0.153500 1.163101 7.852402
		CHANNELS 6 Xposition Yposition Zposition Zrotation Xrotation Yrotation
		JOINT Chest2
		{
			OFFSET 0.000000 0.000000 3.343300
			CHANNELS 6 Xposition Yposition Zposition Zrotation Xrotation Yrotation
			JOINT Neck
			{
				OFFSET 0.000000 0.000000 7.785500
				CHANNELS 6 Xposition Yposition Zposition Zrotation Xrotation Yrotation
				JOINT Head
				{
					OFFSET 0.000000 0.000000 2.173901
					CHANNELS 6 Xposition Yposition Zposition Zrotation Xrotation Yrotation
					End Site
					{
						OFFSET 0.000000 0.000000 10.528198
					}
				}
			}
			JOINT LeftCollar
			{
				OFFSET 2.676300 -1.652401 4.938301
				CHANNELS 6 Xposition Yposition Zposition Zrotation Xrotation Yrotation
				JOINT LeftShoulder
				{
					OFFSET 4.299000 0.000000 0.000000
					CHANNELS 6 Xposition Yposition Zposition Zrotation Xrotation Yrotation
					JOINT LeftElbow
					{
						OFFSET 0.000000 0.000000 -10.245102
						CHANNELS 6 Xposition Yposition Zposition Zrotation Xrotation Yrotation
						JOINT LeftWrist
						{
							OFFSET 0.000000 0.000000 -12.703300
							CHANNELS 6 Xposition Yposition Zposition Zrotation Xrotation Yrotation
							End Site
							{
								OFFSET 0.000000 0.000000 -2.173901
							}
						}
					}
				}
			}
			JOINT RightCollar
			{
				OFFSET -2.534599 -1.686401 5.195000
				CHANNELS 6 Xposition Yposition Zposition Zrotation Xrotation Yrotation
				JOINT RightShoulder
				{
					OFFSET -4.144100 0.000000 0.000000
					CHANNELS 6 Xposition Yposition Zposition Zrotation Xrotation Yrotation
					JOINT RightElbow
					{
						OFFSET 0.000000 0.000000 -10.116501
						CHANNELS 6 Xposition Yposition Zposition Zrotation Xrotation Yrotation
						JOINT RightWrist
						{
							OFFSET 0.000000 0.000000 -12.937801
							CHANNELS 6 Xposition Yposition Zposition Zrotation Xrotation Yrotation
							End Site
							{
								OFFSET 0.000000 0.000000 -2.173901
							}
						}
					}
				}
			}
		}
	}
	JOINT LeftHip
	{
		OFFSET 2.175598 0.064499 -2.662899
		CHANNELS 6 Xposition Yposition Zposition Zrotation Xrotation Yrotation
		JOINT LeftKnee
		{
			OFFSET 0.000000 -0.000004 -18.585800
			CHANNELS 6 Xposition Yposition Zposition Zrotation Xrotation Yrotation
			JOINT LeftAnkle
			{
				OFFSET 0.000000 0.000000 -18.979500
				CHANNELS 6 Xposition Yposition Zposition Zrotation Xrotation Yrotation
				End Site
				{
					OFFSET 0.000000 -9.264000 0.000000
				}
			}
		}
	}
	JOINT RightHip
	{
		OFFSET -2.092400 -0.058102 -2.581200
		CHANNELS 6 Xposition Yposition Zposition Zrotation Xrotation Yrotation
		JOINT RightKnee
		{
			OFFSET 0.000000 -0.000004 -18.665001
			CHANNELS 6 Xposition Yposition Zposition Zrotation Xrotation Yrotation
			JOINT RightAnkle
			{
				OFFSET 0.000000 0.000000 -18.566601
				CHANNELS 6 Xposition Yposition Zposition Zrotation Xrotation Yrotation
				End Site
				{
					OFFSET 0.000000 -8.497601 0.000000
				}
			}
		}
	}
}
MOTION
Frames: 9
Frame Time: 0.041667
63.459698 -8.241894 39.124596 3187.065496 10.330354 -0.682966 -0.153499 1.163095 7.852407 14.484866 28.150538 -4.218372 -0.000004 0.000006 3.343302 -7.373730 -3.919183 -0.230945 -0.000002 0.000003 7.785512 8.438095 -5.812627 9.005825 0.000002 -0.000004 2.173909 0.679560 -1.772341 0.015719 2.676291 -1.652398 4.938314 -1.561617 -1.029429 9.406037 4.299000 -0.000004 -0.000002 -404.437713 -32.699179 268.276717 -0.000010 0.000008 -10.245098 -1.126068 676.829946 433.513527 -0.000007 0.000006 -12.703299 1245.833389 -174.468535 553.735348 -2.534599 -1.686399 5.195006 21.166958 6.053040 1.079039 -4.144101 0.000007 0.000000 281.262409 144.886344 -205.223375 0.000011 -0.000001 -10.116507 -570.418058 -76.267716 -126.804101 0.000002 -0.000002 -12.937801 -1468.304235 -40.860599 -51.857989 2.175591 0.064498 -2.662897 -1009.597691 -37.694202 53.327785 0.000002 0.000002 -18.585800 417.736173 -219.805091 -129.455171 -0.000004 0.000000 -18.979502 726.832340 13.838470 -722.167758 -2.092402 -0.058104 -2.581184 1375.657363 -34.834118 -35.255681 -0.000004 -0.000011 -18.665007 -1130.978349 64.698619 -1018.487319 0.000007 -0.000003 -18.566603 724.332655 -10.990497 -25.643050
63.432602 -8.194702 39.272301 3187.328649 9.763650 -0.605631 -0.153495 1.163107 7.852411 14.454374 28.053781 -4.273105 0.000008 0.000002 3.343301 -7.336736 -3.869022 -0.232307 0.000005 -0.000000 7.785506 8.790260 -5.525469 8.884459 -0.000002 -0.000003 2.173903 0.645012 -1.722035 0.033280 2.676296 -1.652391 4.938307 -0.982709 -1.536567 9.417186 4.298994 -0.000008 -0.000006 -403.847284 -32.095558 269.366760 0.000000 -0.000007 -10.245096 -3.424202 678.263685 432.887390 -0.000005 -0.000002 -12.703299 1245.841039 -174.449247 553.818949 -2.534597 -1.686397 5.195001 20.948781 5.611384 1.407287 -4.144098 -0.000001 -0.000002 280.627229 145.037715 -205.299490 0.000005 0.000006 -10.116496 -513.426631 -102.040882 -71.099448 0.000005 0.000003 -12.937799 -1489.602404 -46.128847 -48.864174 2.175592 0.064506 -2.662897 -1011.101098 -38.002189 51.641185 0.000000 0.000005 -18.585800 421.619053 -221.154012 -131.772736 -0.000004 -0.000012 -18.979504 724.541932 14.494134 -722.217045 -2.092400 -0.058105 -2.581198 1375.572122 -34.158070 -34.650892 0.000002 -0.000016 -18.665010 -1129.521060 64.752994 -1019.756641 0.000005 -0.000007 -18.566593 724.274134 -10.882333 -26.020854
63.404701 -8.148594 39.421799 3187.559018 9.235850 -0.605493 -0.153502 1.163096 7.852407 14.530522 27.890463 -4.198157 -0.000004 0.000000 3.343300 -7.277460 -3.884512 -0.225725 0.000003 0.000001 7.785503 9.097645 -5.178481 8.671027 0.000006 0.000003 2.173902 0.738514 -1.711829 0.148717 2.676301 -1.652400 4.938304 -1.085977 -1.262356 9.707954 4.299006 -0.000013 -0.000008 -403.356958 -31.781652 269.411484 -0.000001 0.000015 -10.245108 -5.444355 679.929814 432.436106 -0.000004 0.000005 -12.703304 1245.810003 -174.389237 553.916484 -2.534600 -1.686399 5.195002 21.345951 6.218215 0.819233 -4.144110 -0.000001 -0.000002 279.222450 144.035931 -204.639585 0.000006 0.000000 -10.116507 -523.096649 -104.376096 -81.115504 0.000010 0.000009 -12.937801 -1485.030111 -40.771793 -44.945069 2.175595 0.064502 -2.662888 -1012.485277 -38.115925 49.999812 0.000004 0.000001 -18.585802 425.527615 -222.242621 -134.268173 -0.000002 -0.000005 -18.979502 723.220372 17.001782 -729.377159 -2.092399 -0.058105 -2.581198 1375.867624 -33.672115 -33.800714 0.000004 -0.000011 -18.665009 -1128.172289 64.722463 -1021.279500 0.000000 -0.000001 -18.566597 724.270637 -10.741894 -26.286039
63.373901 -8.102303 39.566399 3187.848181 8.654265 -0.623019 -0.153503 1.163105 7.852407 14.252125 27.792583 -3.978022 -0.000000 0.000004 3.343302 -7.036374 -3.883974 -0.216247 -0.000000 0.000006 7.785506 9.478780 -4.869595 8.391623 -0.000004 -0.000000 2.173896 0.865140 -1.625331 0.323256 2.676298 -1.652392 4.938300 -0.768402 -1.405210 9.745681 4.298998 -0.000004 -0.000003 -402.852207 -31.475673 269.981259 -0.000004 0.000007 -10.245100 -7.422188 681.715225 432.173280 0.000000 0.000019 -12.703310 1245.741482 -174.340415 554.014238 -2.534595 -1.686393 5.195001 21.427065 6.382457 0.624230 -4.144107 0.000007 -0.000004 278.796465 143.665311 -204.408888 0.000012 0.000004 -10.116508 -532.826991 -113.726113 -91.629863 0.000003 0.000008 -12.937801 -1493.116946 -38.469975 -43.964271 2.175595 0.064497 -2.662905 -1013.642365 -38.095131 48.569062 -0.000004 -0.000007 -18.585798 429.580431 -223.449994 -136.776341 -0.000004 -0.000002 -18.979504 720.856799 18.144848 -730.686261 -2.092402 -0.058104 -2.581194 1376.430868 -33.256331 -32.708857 -0.000003 -0.000012 -18.665009 -1126.774668 64.738268 -1023.112395 0.000002 -0.000005 -18.566597 724.142830 -10.582218 -26.540845
63.346699 -8.047192 39.710495 3188.090789 8.114409 -0.576512 -0.153499 1.163099 7.852413 14.470592 27.550675 -4.099584 0.000003 -0.000003 3.343307 -7.054261 -3.809102 -0.216142 -0.000003 0.000004 7.785507 9.739436 -4.533131 8.364322 -0.000002 0.000013 2.173909 1.002964 -1.555435 0.321264 2.676289 -1.652401 4.938305 -0.674473 -1.396685 9.906334 4.298998 0.000000 -0.000008 -402.392289 -30.896678 270.287688 -0.000008 0.000013 -10.245103 -8.712851 683.844168 432.078587 0.000000 0.000004 -12.703302 1245.650122 -174.261335 554.121008 -2.534601 -1.686394 5.195006 20.878973 7.854455 0.762504 -4.144106 0.000006 0.000001 278.217347 143.283599 -202.658666 0.000002 -0.000000 -10.116504 -536.738559 -122.943870 -96.518421 -0.000004 0.000004 -12.937801 -1500.558792 -36.160896 -43.307081 2.175592 0.064501 -2.662891 -1014.700334 -38.107152 47.169471 0.000002 -0.000007 -18.585796 433.439707 -224.344120 -139.214992 -0.000004 0.000001 -18.979500 718.730752 19.125093 -731.697020 -2.092402 -0.058113 -2.581194 1376.778716 -32.757201 -31.866565 0.000009 -0.000010 -18.665012 -1125.612115 64.608146 -1024.542801 -0.000001 -0.000007 -18.566597 724.171517 -10.406818 -26.787377
63.321404 -7.998299 39.848297 3188.273510 7.554385 -0.487706 -0.153496 1.163102 7.852404 14.687530 27.271339 -4.206619 0.000003 -0.000003 3.343302 -7.052854 -3.736992 -0.215774 -0.000009 0.000000 7.785505 10.128067 -4.109488 8.235221 -0.000005 0.000003 2.173902 1.143128 -1.580555 0.385669 2.676292 -1.652395 4.938300 -0.485200 -1.450815 9.955798 4.299007 -0.000004 0.000004 -401.888904 -30.380418 270.728099 0.000000 0.000008 -10.245102 -9.722413 686.432973 432.197705 -0.000008 0.000001 -12.703304 1245.551876 -174.279407 554.235482 -2.534603 -1.686404 5.195001 20.924484 7.945778 0.855204 -4.144110 0.000003 0.000000 278.279283 143.270226 -202.658106 0.000002 0.000007 -10.116510 -538.459821 -132.892149 -99.689944 0.000003 -0.000002 -12.937796 -1509.050739 -34.203395 -42.321099 2.175601 0.064493 -2.662905 -1015.505313 -38.087703 45.898359 0.000004 -0.000006 -18.585800 437.137762 -225.127966 -141.461960 0.000001 -0.000004 -18.979502 716.559736 20.213591 -732.518008 -2.092392 -0.058109 -2.581205 1377.314531 -32.247143 -30.916814 0.000002 -0.000007 -18.665009 -1124.492948 64.451782 -1026.084019 0.000004 -0.000001 -18.566599 724.217525 -10.225550 -26.979024
63.302399 -7.948097 39.987495 3188.468253 6.989903 -0.469301 -0.153507 1.163102 7.852399 14.970730 26.980630 -4.376606 -0.000000 -0.000001 3.343303 -7.059590 -3.675061 -0.214075 0.000003 0.000000 7.785500 10.497631 -3.633356 8.289480 0.000001 0.000002 2.173909 1.322814 -1.563126 0.260065 2.676295 -1.652397 4.938301 -0.531961 -1.342958 10.263899 4.298992 -0.000004 -0.000000 -401.542286 -29.259082 270.714220 -0.000002 0.000011 -10.245107 -10.119484 689.105982 432.399223 -0.000003 0.000003 -12.703302 1245.434288 -174.278943 554.349737 -2.534597 -1.686399 5.195000 20.929670 8.174136 1.009555 -4.144110 0.000002 -0.000002 278.795317 143.253136 -202.742814 0.000004 0.000005 -10.116508 -540.248183 -141.001469 -101.012658 0.000002 -0.000005 -12.937807 -1516.566679 -27.785524 -44.817273 2.175587 0.064499 -2.662891 -1015.954139 -37.884747 44.877741 -0.000002 -0.000010 -18.585800 440.512176 -225.753584 -143.510034 -0.000002 -0.000007 -18.979500 714.427023 21.486722 -733.088138 -2.092405 -0.058109 -2.581200 1378.202128 -31.853513 -29.720154 0.000008 -0.000004 -18.665014 -1123.536066 64.186764 -1027.823259 0.000000 -0.000011 -18.566591 724.313421 -10.017213 -27.047901
63.282501 -7.893402 40.126995 3188.741679 6.389735 -0.418827 -0.153495 1.163110 7.852407 15.249442 26.712088 -4.668355 0.000001 0.000000 3.343306 -7.100584 -3.627512 -0.215323 0.000007 0.000003 7.785502 10.935365 -3.097100 8.364518 0.000001 -0.000001 2.173911 1.449638 -1.569539 0.279800 2.676299 -1.652395 4.938303 -0.383544 -1.415451 10.481943 4.298998 0.000004 -0.000003 -401.252413 -28.328423 270.930819 -0.000007 0.000007 -10.245097 -10.654091 691.951001 432.703030 -0.000009 0.000002 -12.703293 1245.307738 -174.293204 554.464156 -2.534592 -1.686396 5.195003 20.940983 8.302507 1.381205 -4.144107 0.000005 0.000004 279.004048 143.624207 -202.786076 0.000001 0.000003 -10.116511 -540.717772 -149.574709 -103.569123 0.000004 -0.000008 -12.937799 -1524.027978 -25.775730 -43.847677 2.175597 0.064501 -2.662903 -1016.582953 -37.817221 43.843182 -0.000003 0.000003 -18.585796 445.096162 -226.814299 -146.138331 -0.000004 -0.000002 -18.979504 711.526706 22.807894 -733.659524 -2.092393 -0.058102 -2.581203 1378.735538 -31.349803 -28.754051 0.000004 -0.000009 -18.665009 -1122.529132 63.994740 -1029.283608 -0.000001 -0.000011 -18.566595 724.303913 -9.852841 -27.321291
63.263302 -7.838501 40.270893 3188.941667 5.815680 -0.353214 -0.153503 1.163104 7.852402 15.826260 26.387060 -5.036126 0.000007 0.000003 3.343304 -7.253465 -3.605482 -0.218444 0.000001 0.000006 7.785504 11.276180 -2.536079 8.508891 -0.000005 -0.000004 2.173902 1.670122 -1.624014 0.270848 2.676297 -1.652401 4.938302 -0.542647 -1.186716 10.788068 4.299000 -0.000004 -0.000008 -400.989287 -27.265164 270.727170 -0.000005 0.000002 -10.245102 -10.801500 694.886453 433.083990 0.000001 0.000007 -12.703294 1245.173320 -174.326522 554.572893 -2.534596 -1.686397 5.195002 21.137337 8.495972 1.233473 -4.144112 -0.000001 -0.000001 278.560086 143.422880 -202.588889 0.000005 0.000011 -10.116495 -540.645645 -156.074112 -106.210002 0.000005 -0.000008 -12.937801 -1529.752223 -23.514820 -43.043036 2.175595 0.064503 -2.662901 -1017.503444 -37.865394 42.580919 0.000004 -0.000009 -18.585800 449.398990 -227.422528 -148.565671 -0.000006 0.000002 -18.979506 709.201546 23.968401 -733.993876 -2.092402 -0.058105 -2.581202 1378.999566 -30.784431 -28.019550 0.000004 -0.000008 -18.665016 -1121.480670 63.882247 -1030.466159 0.000000 -0.000004 -18.566605 724.252933 -9.738244 -27.663781
